# xmcd CD database file
#
# Track frame offsets:
#	150
#	26862
#	45693
#	67849
#	90680
#	109148
#	129183
#	151852
#	172264
#	193054
#	215557
#	233294
#	253331
#	274568
#	295382
#
# Disc length: 4212 seconds
#
# Revision: 0
# Processed by: cddbd v1.5.2PL0 Copyright (c) Steve Scherf et al.
# Submitted via: CDex 1.70beta2
#
DISCID=d610720f
DTITLE=Various Artist - Salsahits 2008
DYEAR=2007
DGENRE=Salsa
TTITLE0=El Gran Combo - Arroz Con Habichuelas
TTITLE1=Tito Nieves - Más Que Tu Amigo
TTITLE2=Victor Manuelle - Nunca Había Llorado Así
TTITLE3=Tito Rojas - Te Reto
TTITLE4=Andy Montañez - Mi Prueba De Fuego
TTITLE5=Johnny Rivera - Dicen
TTITLE6=Anthony Cruz - Te Ofrezco
TTITLE7=Puerto Rican Power - Mi Mujer Es Un Policía
TTITLE8=Issac Delgado Ft. Victor Manuelle - La Mujer Que Más Te Duele
TTITLE9=Pedro Conga Y Rafy Cruz - No Me La Pongas Dura
TTITLE10=Sexappeal - La Primera Piedra
TTITLE11=Kevin Ceballo - El Milagro De Tu Amor
TTITLE12=Edgar Daniel - Cuando Baje La Marea (Después Que Pase El Temporal)
TTITLE13=Carlos Nuño Y La Grande De Madrid - Nada
TTITLE14=Eddie Santiago - Pienso Sólo En Ti
EXTD=YEAR: 2007
EXTT0=
EXTT1=
EXTT2=
EXTT3=
EXTT4=
EXTT5=
EXTT6=
EXTT7=
EXTT8=
EXTT9=
EXTT10=
EXTT11=
EXTT12=
EXTT13=
EXTT14=
PLAYORDER=
